<svg width="66" height="66" viewBox="0 0 66 66" fill="none" xmlns="http://www.w3.org/2000/svg">
<path id="Vector" d="M11.6308 52.9575C14.7239 50.7323 18.0058 48.9726 21.4767 47.6784C24.9476 46.3835 28.7054 45.7361 32.75 45.7361C36.7946 45.7361 40.5524 46.3835 44.0233 47.6784C47.4942 48.9726 50.7761 50.7323 53.8692 52.9575C56.2721 50.4709 58.2046 47.5343 59.6669 44.1477C61.1297 40.7605 61.8611 37.0446 61.8611 33C61.8611 24.9338 59.0258 18.0654 53.3552 12.3948C47.6846 6.72419 40.8162 3.88889 32.75 3.88889C24.6838 3.88889 17.8154 6.72419 12.1448 12.3948C6.47419 18.0654 3.63889 24.9338 3.63889 33C3.63889 37.0446 4.37031 40.7605 5.83314 44.1477C7.29537 47.5343 9.22792 50.4709 11.6308 52.9575ZM32.75 34.8194C29.6848 34.8194 27.0991 33.7663 24.9928 31.66C22.8865 29.5537 21.8333 26.9679 21.8333 23.9028C21.8333 20.8376 22.8865 18.2519 24.9928 16.1456C27.0991 14.0393 29.6848 12.9861 32.75 12.9861C35.8152 12.9861 38.4009 14.0393 40.5072 16.1456C42.6135 18.2519 43.6667 20.8376 43.6667 23.9028C43.6667 26.9679 42.6135 29.5537 40.5072 31.66C38.4009 33.7663 35.8152 34.8194 32.75 34.8194ZM32.75 65.75C28.1826 65.75 23.9069 64.8997 19.9229 63.1991C15.9389 61.4986 12.4726 59.1742 9.52388 56.2261C6.57578 53.2774 4.25143 49.8111 2.55086 45.8271C0.850286 41.8431 0 37.5674 0 33C0 28.4326 0.850286 24.1569 2.55086 20.1729C4.25143 16.1889 6.57578 12.7226 9.52388 9.77388C12.4726 6.82578 15.9389 4.50143 19.9229 2.80086C23.9069 1.10029 28.1826 0.25 32.75 0.25C37.3174 0.25 41.5931 1.10029 45.5771 2.80086C49.5611 4.50143 53.0274 6.82578 55.9761 9.77388C58.9242 12.7226 61.2486 16.1889 62.9491 20.1729C64.6497 24.1569 65.5 28.4326 65.5 33C65.5 37.5674 64.6497 41.8431 62.9491 45.8271C61.2486 49.8111 58.9242 53.2774 55.9761 56.2261C53.0274 59.1742 49.5611 61.4986 45.5771 63.1991C41.5931 64.8997 37.3174 65.75 32.75 65.75Z" fill="#2F2B42"/>
</svg>
