<svg width="24" height="25" viewBox="0 0 24 25" fill="none" xmlns="http://www.w3.org/2000/svg">
<path id="Vector" d="M10.6154 13.8846H1.38462C0.992308 13.8846 0.663539 13.7518 0.398308 13.4863C0.132769 13.2208 0 12.8918 0 12.4995C0 12.1069 0.132769 11.7782 0.398308 11.5132C0.663539 11.248 0.992308 11.1154 1.38462 11.1154H10.6154V1.88462C10.6154 1.49231 10.7482 1.16354 11.0137 0.898308C11.2792 0.632769 11.6082 0.5 12.0005 0.5C12.3931 0.5 12.7218 0.632769 12.9868 0.898308C13.252 1.16354 13.3846 1.49231 13.3846 1.88462V11.1154H22.6154C23.0077 11.1154 23.3365 11.2482 23.6017 11.5137C23.8672 11.7792 24 12.1082 24 12.5005C24 12.8931 23.8672 13.2218 23.6017 13.4868C23.3365 13.752 23.0077 13.8846 22.6154 13.8846H13.3846V23.1154C13.3846 23.5077 13.2518 23.8365 12.9863 24.1017C12.7208 24.3672 12.3918 24.5 11.9995 24.5C11.6069 24.5 11.2782 24.3672 11.0132 24.1017C10.748 23.8365 10.6154 23.5077 10.6154 23.1154V13.8846Z" fill="#2F2B42"/>
</svg>
