<svg width="25" height="25" viewBox="0 0 25 25" fill="none" xmlns="http://www.w3.org/2000/svg">
<path d="M10.5556 18.3333L20.3472 8.54167L18.4028 6.59722L10.5556 14.4444L6.59722 10.4861L4.65278 12.4306L10.5556 18.3333ZM2.77778 25C2.01389 25 1.35995 24.728 0.815972 24.184C0.271991 23.64 0 22.9861 0 22.2222V2.77778C0 2.01389 0.271991 1.35995 0.815972 0.815972C1.35995 0.271991 2.01389 0 2.77778 0H22.2222C22.9861 0 23.64 0.271991 24.184 0.815972C24.728 1.35995 25 2.01389 25 2.77778V22.2222C25 22.9861 24.728 23.64 24.184 24.184C23.64 24.728 22.9861 25 22.2222 25H2.77778ZM2.77778 22.2222H22.2222V2.77778H2.77778V22.2222Z" fill="#00BD00"/>
</svg>
