<svg width="27" height="28" viewBox="0 0 27 28" fill="none" xmlns="http://www.w3.org/2000/svg">
<path id="Vector" d="M10.5044 0.43689L9.83945 3.85946C8.72162 4.28102 7.69512 4.87193 6.79569 5.61048L3.50822 4.47669L0.339966 9.96021L2.97312 12.249C2.87189 12.8705 2.81947 13.4464 2.81947 14C2.81947 14.5544 2.87346 15.1293 2.97312 15.751V15.7537L0.339966 18.0424L3.50822 23.5233L6.79304 22.3922C7.69256 23.1311 8.72137 23.7187 9.83945 24.1406L10.5044 27.5631H16.8356L17.5005 24.1406C18.619 23.7187 19.6444 23.1288 20.5442 22.3895L23.8317 23.5233L26.9973 18.0424L24.3668 15.751C24.468 15.1295 24.5205 14.5536 24.5205 14C24.5205 13.4473 24.4677 12.8721 24.3668 12.2516V12.249L27 9.95756L23.8317 4.47669L20.5469 5.60783C19.6474 4.86888 18.6186 4.28126 17.5005 3.85946L16.8356 0.43689H10.5044ZM12.7402 3.14951H14.5998L15.1269 5.86214L16.5415 6.39724C17.3942 6.71861 18.1603 7.15979 18.825 7.70587L19.9959 8.66483L22.6025 7.76945L23.5324 9.37742L21.4502 11.1894L21.6886 12.6808V12.6834C21.7716 13.192 21.8078 13.6186 21.8078 14C21.8078 14.3814 21.7716 14.808 21.6886 15.3166L21.4476 16.808L23.5297 18.6199L22.5999 20.2306L19.9959 19.3325L18.8224 20.2941C18.1576 20.8402 17.3942 21.2814 16.5415 21.6028H16.5389L15.1243 22.1379L14.5971 24.8505H12.7402L12.213 22.1379L10.7984 21.6028C9.94573 21.2814 9.17966 20.8402 8.51492 20.2941L7.34404 19.3352L4.73738 20.2306L3.80757 18.6226L5.89237 16.808L5.6513 15.3219V15.3192C5.56956 14.8085 5.5321 14.3807 5.5321 14C5.5321 13.6186 5.56837 13.192 5.6513 12.6834L5.89237 11.192L3.80757 9.38007L4.73738 7.76945L7.34404 8.66748L8.51492 7.70587C9.17966 7.15979 9.94573 6.71861 10.7984 6.39724L12.213 5.86214L12.7402 3.14951ZM13.67 8.57476C10.6908 8.57476 8.24472 11.0208 8.24472 14C8.24472 16.9792 10.6908 19.4253 13.67 19.4253C16.6491 19.4253 19.0952 16.9792 19.0952 14C19.0952 11.0208 16.6491 8.57476 13.67 8.57476ZM13.67 11.2874C15.1775 11.2874 16.3826 12.4925 16.3826 14C16.3826 15.5075 15.1775 16.7126 13.67 16.7126C12.1625 16.7126 10.9573 15.5075 10.9573 14C10.9573 12.4925 12.1625 11.2874 13.67 11.2874Z" fill="black"/>
</svg>
