<svg width="17" height="22" viewBox="0 0 17 22" fill="none" xmlns="http://www.w3.org/2000/svg">
<path id="Vector" d="M6.375 0.375L5.3125 1.4375H0V3.5625H1.0625V19.5C1.0625 20.0549 1.26579 20.6205 1.66638 21.0211C2.06698 21.4217 2.63264 21.625 3.1875 21.625H13.8125C14.3674 21.625 14.933 21.4217 15.3336 21.0211C15.7342 20.6205 15.9375 20.0549 15.9375 19.5V3.5625H17V1.4375H11.6875L10.625 0.375H6.375ZM3.1875 3.5625H13.8125V19.5H3.1875V3.5625ZM5.3125 5.6875V17.375H7.4375V5.6875H5.3125ZM9.5625 5.6875V17.375H11.6875V5.6875H9.5625Z" fill="black"/>
</svg>
